<svg width="267" height="267" viewBox="0 0 267 267" fill="none" xmlns="http://www.w3.org/2000/svg">
<path d="M231.761 34.9758C194.143 -1.59701 132.775 -12.9412 88.0966 17.6564C70.9677 29.3701 60.1431 48.5253 52.638 67.4093C50.5539 72.6513 48.8912 78.0318 46.1201 82.9967C37.9511 97.5797 22.0865 104.865 12.5493 118.311C1.40718 134.054 -0.0938349 154.838 0.00430842 173.496C0.229461 217.326 34.1813 248.957 73.9004 261.3C92.8421 267.189 110.029 267.956 128.803 261.687C156.017 252.594 185.264 248.657 212.577 239.114C237.02 230.581 249.577 207.714 257.284 184.483C266.08 158.011 268.953 129.931 265.701 102.227C262.572 75.9997 249.987 52.6993 231.761 34.9758Z" fill="#407BFF" fill-opacity="0.5"/>
<path opacity="0.7" d="M231.761 34.9758C194.143 -1.59701 132.775 -12.9412 88.0966 17.6564C70.9677 29.3701 60.1431 48.5253 52.638 67.4093C50.5539 72.6513 48.8912 78.0318 46.1201 82.9967C37.9511 97.5797 22.0865 104.865 12.5493 118.311C1.40718 134.054 -0.0938349 154.838 0.00430842 173.496C0.229461 217.326 34.1813 248.957 73.9004 261.3C92.8421 267.189 110.029 267.956 128.803 261.687C156.017 252.594 185.264 248.657 212.577 239.114C237.02 230.581 249.577 207.714 257.284 184.483C266.08 158.011 268.953 129.931 265.701 102.227C262.572 75.9997 249.987 52.6993 231.761 34.9758Z" fill="white"/>
<path d="M229.265 16.3247L79.3809 1.97345L57.0008 235.71L206.885 250.061L229.265 16.3247Z" fill="white" stroke="#263238" stroke-miterlimit="10"/>
<path d="M225.025 21.7217L82.5156 8.0766L61.2368 230.312L203.746 243.957L225.025 21.7217Z" fill="#263238" stroke="#263238" stroke-miterlimit="10"/>
<path d="M186.341 200.676L86.5371 191.119L83.6714 221.049L183.476 230.605L186.341 200.676Z" fill="#636363"/>
<g opacity="0.2">
<path d="M178.882 199.961L164.434 198.578L131.644 225.642L146.086 227.025L178.882 199.961Z" fill="white"/>
<path d="M86.5581 221.326L92.3749 221.883L125.164 194.818L119.348 194.261L86.5581 221.326Z" fill="white"/>
</g>
<path d="M95.4044 213.675L96.1562 205.823L99.1764 206.112L99.0983 206.927L97.1534 206.741L96.9052 209.332L98.5059 209.486L98.4319 210.259L96.8554 210.108L96.5806 212.977L98.5438 213.165L98.4691 213.944L95.4044 213.675Z" fill="white"/>
<path d="M99.2454 214.043L99.7798 208.462L100.74 208.554L100.689 209.085C100.873 208.901 101.095 208.758 101.339 208.666C101.566 208.587 101.808 208.558 102.048 208.581C102.244 208.596 102.432 208.667 102.589 208.786C102.762 208.934 102.871 209.143 102.893 209.369C103.089 209.162 103.33 209.002 103.596 208.9C103.836 208.81 104.094 208.776 104.349 208.802C104.523 208.817 104.69 208.877 104.833 208.976C104.979 209.093 105.089 209.25 105.149 209.427C105.225 209.673 105.246 209.933 105.21 210.189L104.79 214.574L103.848 214.484L104.263 210.153C104.302 209.964 104.273 209.767 104.182 209.596C104.142 209.545 104.091 209.502 104.033 209.472C103.975 209.443 103.91 209.426 103.845 209.424C103.688 209.411 103.53 209.437 103.386 209.502C103.217 209.568 103.063 209.667 102.932 209.794L102.496 214.342L101.548 214.251L101.961 209.932C102.003 209.743 101.974 209.546 101.881 209.376C101.841 209.324 101.79 209.282 101.731 209.252C101.673 209.222 101.609 209.206 101.544 209.204C101.388 209.19 101.232 209.217 101.091 209.282C100.922 209.351 100.766 209.45 100.63 209.573L100.195 214.122L99.2454 214.043Z" fill="white"/>
<path d="M105.641 216.509L106.352 209.091L107.391 209.19L107.348 209.631C107.49 209.499 107.65 209.389 107.825 209.305C108.019 209.221 108.232 209.188 108.443 209.212C108.694 209.221 108.932 209.325 109.11 209.501C109.266 209.676 109.378 209.885 109.436 210.112C109.498 210.343 109.53 210.582 109.533 210.822C109.54 211.025 109.535 211.228 109.517 211.43L109.387 212.783C109.351 213.158 109.277 213.529 109.166 213.89C109.074 214.201 108.9 214.481 108.661 214.701C108.538 214.8 108.395 214.872 108.242 214.913C108.089 214.954 107.929 214.963 107.773 214.939C107.584 214.925 107.404 214.854 107.256 214.737C107.115 214.627 106.988 214.5 106.877 214.359L106.662 216.606L105.641 216.509ZM107.669 214.112C107.745 214.126 107.824 214.118 107.895 214.089C107.967 214.06 108.029 214.012 108.075 213.95C108.179 213.792 108.246 213.613 108.271 213.426C108.293 213.202 108.347 212.958 108.373 212.686L108.502 211.333C108.522 211.119 108.528 210.904 108.521 210.689C108.524 210.519 108.484 210.351 108.403 210.202C108.362 210.138 108.305 210.085 108.239 210.048C108.172 210.01 108.098 209.99 108.021 209.988C107.887 209.976 107.752 209.994 107.626 210.042C107.507 210.08 107.394 210.137 107.293 210.211L106.951 213.787C107.044 213.871 107.147 213.943 107.259 214C107.385 214.071 107.523 214.117 107.667 214.136L107.669 214.112Z" fill="white"/>
<path d="M110.227 215.094L110.979 207.242L112.011 207.341L111.26 215.193L110.227 215.094Z" fill="white"/>
<path d="M113.875 215.523C113.529 215.508 113.197 215.389 112.92 215.181C112.695 214.979 112.541 214.71 112.481 214.414C112.41 214.049 112.394 213.676 112.435 213.306L112.59 211.688C112.62 211.317 112.706 210.953 112.846 210.609C112.961 210.329 113.163 210.094 113.422 209.938C113.733 209.787 114.082 209.734 114.424 209.785C114.768 209.799 115.099 209.918 115.373 210.125C115.594 210.329 115.745 210.597 115.806 210.892C115.877 211.257 115.893 211.63 115.852 212L115.697 213.619C115.667 213.989 115.581 214.353 115.441 214.697C115.326 214.975 115.127 215.21 114.871 215.368C114.562 215.519 114.215 215.573 113.875 215.523ZM113.948 214.762C114.026 214.777 114.106 214.773 114.182 214.749C114.258 214.726 114.326 214.684 114.381 214.626C114.486 214.5 114.552 214.345 114.57 214.181C114.588 213.994 114.607 213.795 114.628 213.577L114.796 211.826C114.816 211.614 114.835 211.415 114.854 211.222C114.864 211.058 114.829 210.894 114.753 210.749C114.711 210.68 114.652 210.624 114.582 210.585C114.512 210.546 114.433 210.526 114.353 210.527C114.273 210.512 114.19 210.517 114.112 210.541C114.034 210.566 113.964 210.609 113.907 210.668C113.804 210.796 113.738 210.95 113.718 211.113C113.7 211.3 113.681 211.499 113.66 211.717L113.492 213.475C113.472 213.68 113.453 213.879 113.434 214.079C113.421 214.243 113.456 214.407 113.535 214.552C113.585 214.613 113.648 214.662 113.72 214.694C113.792 214.726 113.871 214.741 113.95 214.738L113.948 214.762Z" fill="white"/>
<path d="M116.23 217.083L116.305 216.292C116.507 216.314 116.71 216.323 116.912 216.32C117.03 216.321 117.145 216.287 117.244 216.224C117.282 216.193 117.312 216.155 117.333 216.112C117.354 216.069 117.365 216.021 117.366 215.973C117.366 215.842 117.356 215.71 117.337 215.58C117.308 215.374 117.279 215.158 117.252 214.932L116.584 210.071L117.629 210.171L117.984 214.417L119.109 210.313L120.154 210.413L118.254 216.18C118.188 216.415 118.055 216.627 117.873 216.79C117.688 216.937 117.469 217.036 117.236 217.076C116.943 217.125 116.645 217.131 116.35 217.095L116.23 217.083Z" fill="white"/>
<path d="M121.775 216.279C121.417 216.266 121.071 216.144 120.785 215.929C120.556 215.717 120.407 215.434 120.362 215.126C120.301 214.722 120.293 214.311 120.338 213.905L120.461 212.624C120.492 212.216 120.58 211.814 120.722 211.43C120.827 211.136 121.032 210.888 121.301 210.73C121.618 210.579 121.973 210.526 122.321 210.577C122.694 210.582 123.053 210.72 123.332 210.967C123.548 211.209 123.675 211.518 123.693 211.843C123.73 212.282 123.725 212.725 123.677 213.164L123.633 213.617L121.429 213.406L121.321 214.529C121.301 214.714 121.303 214.9 121.329 215.085C121.35 215.212 121.412 215.328 121.504 215.418C121.604 215.501 121.727 215.549 121.857 215.556C121.919 215.567 121.984 215.566 122.046 215.552C122.108 215.538 122.166 215.512 122.218 215.474C122.316 215.4 122.386 215.295 122.417 215.177C122.461 215.018 122.491 214.855 122.506 214.691L122.54 214.341L123.543 214.437L123.522 214.648C123.503 215.119 123.334 215.57 123.039 215.937C122.872 216.092 122.669 216.204 122.449 216.263C122.229 216.323 121.998 216.329 121.775 216.279ZM121.498 212.809L122.706 212.924L122.754 212.423C122.778 212.221 122.783 212.018 122.77 211.815C122.767 211.682 122.724 211.552 122.647 211.444C122.599 211.394 122.541 211.355 122.478 211.328C122.415 211.301 122.346 211.287 122.278 211.286C122.142 211.268 122.004 211.295 121.886 211.365C121.772 211.461 121.695 211.593 121.667 211.74C121.608 211.989 121.567 212.242 121.546 212.496L121.498 212.809Z" fill="white"/>
<path d="M125.858 216.67C125.499 216.657 125.154 216.535 124.867 216.32C124.637 216.11 124.487 215.826 124.444 215.517C124.378 215.113 124.368 214.702 124.415 214.295L124.537 213.015C124.568 212.606 124.657 212.204 124.804 211.821C124.907 211.527 125.11 211.279 125.377 211.12C125.697 210.971 126.054 210.918 126.404 210.968C126.776 210.974 127.135 211.112 127.415 211.358C127.631 211.601 127.758 211.909 127.776 212.234C127.811 212.673 127.803 213.116 127.753 213.554L127.71 214.007L125.523 213.798L125.416 214.921C125.392 215.106 125.395 215.293 125.423 215.477C125.44 215.605 125.502 215.724 125.599 215.81C125.698 215.893 125.822 215.941 125.951 215.948C126.078 215.97 126.208 215.94 126.313 215.867C126.405 215.789 126.473 215.685 126.506 215.568C126.555 215.41 126.586 215.248 126.601 215.084L126.634 214.733L127.637 214.829L127.617 215.041C127.598 215.511 127.428 215.962 127.134 216.329C126.965 216.485 126.76 216.598 126.538 216.657C126.315 216.717 126.082 216.721 125.858 216.67ZM125.58 213.2L126.788 213.315L126.836 212.814C126.857 212.612 126.862 212.409 126.852 212.206C126.85 212.073 126.807 211.943 126.729 211.835C126.63 211.737 126.499 211.681 126.36 211.677C126.223 211.657 126.082 211.684 125.963 211.755C125.853 211.854 125.778 211.986 125.75 212.131C125.687 212.379 125.646 212.632 125.629 212.887L125.58 213.2Z" fill="white"/>
<path d="M132.116 217.27C131.772 217.255 131.441 217.136 131.167 216.929C130.938 216.73 130.783 216.459 130.728 216.161C130.654 215.797 130.638 215.423 130.682 215.054L130.837 213.435C130.864 213.064 130.95 212.7 131.093 212.356C131.203 212.074 131.407 211.838 131.669 211.686C131.983 211.552 132.325 211.499 132.665 211.532C133.005 211.564 133.331 211.681 133.614 211.872C133.839 212.073 133.991 212.342 134.046 212.639C134.121 213.003 134.136 213.377 134.093 213.747L133.938 215.365C133.911 215.736 133.824 216.101 133.682 216.444C133.571 216.725 133.371 216.96 133.112 217.115C132.803 217.267 132.456 217.321 132.116 217.27ZM132.188 216.508C132.267 216.524 132.348 216.52 132.425 216.496C132.502 216.473 132.572 216.431 132.628 216.374C132.728 216.244 132.793 216.091 132.817 215.929C132.835 215.741 132.854 215.542 132.875 215.325L133.043 213.573C133.063 213.361 133.082 213.162 133.1 212.969C133.106 212.805 133.071 212.643 132.999 212.496C132.956 212.427 132.896 212.371 132.825 212.332C132.755 212.293 132.675 212.273 132.594 212.274C132.515 212.259 132.433 212.263 132.356 212.288C132.279 212.313 132.209 212.356 132.154 212.415C132.051 212.544 131.984 212.697 131.959 212.86C131.941 213.047 131.922 213.246 131.901 213.464L131.733 215.221C131.713 215.427 131.694 215.626 131.675 215.825C131.667 215.99 131.704 216.154 131.782 216.299C131.83 216.36 131.893 216.409 131.964 216.441C132.035 216.473 132.113 216.488 132.191 216.484L132.188 216.508Z" fill="white"/>
<path d="M135.022 217.469L135.485 212.636L134.821 212.573L134.893 211.812L135.558 211.875L135.586 211.585C135.611 211.285 135.668 210.988 135.756 210.699C135.815 210.466 135.958 210.263 136.158 210.128C136.404 210.002 136.684 209.958 136.956 210.004L137.3 210.037L137.628 210.123L137.553 210.902L137.384 210.886L137.19 210.867C137.115 210.848 137.036 210.854 136.964 210.883C136.892 210.912 136.831 210.964 136.791 211.03C136.716 211.193 136.672 211.369 136.662 211.548L136.617 212.013L137.463 212.094L137.39 212.855L136.545 212.774L136.082 217.607L135.022 217.469Z" fill="white"/>
<path d="M141.164 218.136C140.919 218.124 140.682 218.044 140.479 217.906C140.313 217.78 140.193 217.604 140.137 217.404C140.074 217.17 140.056 216.926 140.084 216.685L140.431 213.061L139.827 213.003L139.892 212.321L140.496 212.379L140.653 210.742L141.686 210.841L141.529 212.477L142.429 212.564L142.364 213.246L141.464 213.16L141.122 216.73C141.092 216.893 141.114 217.062 141.185 217.211C141.233 217.269 141.293 217.315 141.36 217.346C141.428 217.377 141.502 217.391 141.577 217.389L141.758 217.406L141.951 217.425L141.878 218.192L141.517 218.2L141.164 218.136Z" fill="white"/>
<path d="M142.688 218.203L143.439 210.35L144.472 210.449L144.202 213.276C144.399 213.113 144.617 212.976 144.85 212.869C145.099 212.76 145.372 212.719 145.642 212.749C145.735 212.751 145.826 212.771 145.911 212.81C145.995 212.848 146.071 212.904 146.133 212.973C146.244 213.104 146.318 213.263 146.345 213.432C146.377 213.61 146.384 213.791 146.366 213.971L145.934 218.489L144.901 218.39L145.306 214.162C145.328 214.003 145.313 213.84 145.259 213.688C145.228 213.626 145.178 213.574 145.118 213.539C145.058 213.504 144.988 213.488 144.919 213.491C144.784 213.482 144.65 213.507 144.528 213.563C144.387 213.624 144.253 213.699 144.128 213.787L143.699 218.269L142.688 218.203Z" fill="white"/>
<path d="M148.498 218.838C148.14 218.825 147.794 218.702 147.508 218.487C147.277 218.277 147.128 217.993 147.085 217.685C147.021 217.281 147.013 216.87 147.061 216.463L147.184 215.183C147.215 214.775 147.303 214.373 147.445 213.989C147.55 213.695 147.755 213.447 148.024 213.288C148.341 213.137 148.697 213.084 149.044 213.136C149.417 213.14 149.776 213.278 150.055 213.525C150.271 213.768 150.398 214.077 150.416 214.401C150.453 214.841 150.448 215.284 150.4 215.722L150.356 216.175L148.152 215.964L148.044 217.088C148.021 217.272 148.023 217.459 148.052 217.643C148.069 217.772 148.131 217.89 148.227 217.977C148.327 218.059 148.451 218.107 148.58 218.114C148.642 218.126 148.707 218.124 148.769 218.111C148.831 218.097 148.889 218.07 148.941 218.033C149.039 217.959 149.109 217.854 149.14 217.735C149.184 217.576 149.214 217.414 149.229 217.25L149.263 216.9L150.266 216.996L150.245 217.207C150.226 217.677 150.057 218.129 149.762 218.496C149.595 218.65 149.392 218.762 149.172 218.821C148.952 218.881 148.721 218.887 148.498 218.838ZM148.221 215.367L149.429 215.483L149.477 214.982C149.501 214.78 149.506 214.576 149.493 214.374C149.49 214.24 149.447 214.111 149.37 214.002C149.322 213.953 149.264 213.914 149.201 213.887C149.138 213.86 149.07 213.846 149.001 213.845C148.865 213.826 148.727 213.854 148.609 213.923C148.495 214.02 148.418 214.152 148.39 214.299C148.331 214.547 148.29 214.8 148.269 215.055L148.221 215.367Z" fill="white"/>
<path d="M153.307 219.219L154.204 211.381L155.279 211.484L156.054 217.971L158.051 211.749L159.114 211.851L158.507 219.717L157.632 219.633L158.085 213.947L156.218 219.498L155.614 219.44L154.841 213.636L154.213 219.306L153.307 219.219Z" fill="white"/>
<path d="M161.151 220.05C160.805 220.034 160.472 219.916 160.196 219.708C159.971 219.506 159.817 219.237 159.757 218.941C159.683 218.576 159.667 218.202 159.711 217.833L159.866 216.214C159.893 215.843 159.979 215.479 160.122 215.135C160.237 214.856 160.439 214.621 160.698 214.465C161.009 214.314 161.358 214.261 161.7 214.311C162.042 214.326 162.371 214.444 162.643 214.651C162.868 214.854 163.021 215.123 163.081 215.419C163.151 215.784 163.164 216.157 163.122 216.526L162.967 218.145C162.938 218.515 162.854 218.879 162.717 219.224C162.602 219.504 162.4 219.739 162.141 219.894C161.834 220.046 161.489 220.1 161.151 220.05ZM161.224 219.288C161.301 219.304 161.382 219.3 161.458 219.276C161.533 219.253 161.602 219.21 161.657 219.153C161.762 219.026 161.827 218.872 161.846 218.708C161.864 218.521 161.883 218.321 161.904 218.104L162.072 216.352C162.092 216.141 162.111 215.942 162.129 215.748C162.14 215.584 162.105 215.421 162.028 215.275C161.987 215.207 161.928 215.151 161.858 215.112C161.788 215.073 161.709 215.053 161.629 215.054C161.549 215.039 161.466 215.043 161.388 215.068C161.31 215.092 161.24 215.136 161.183 215.194C161.08 215.323 161.013 215.476 160.988 215.639C160.97 215.826 160.951 216.026 160.93 216.243L160.762 218.001C160.742 218.206 160.723 218.405 160.704 218.605C160.696 218.769 160.733 218.933 160.811 219.078C160.861 219.14 160.924 219.189 160.996 219.221C161.068 219.253 161.147 219.268 161.226 219.264L161.224 219.288Z" fill="white"/>
<path d="M163.725 220.217L164.26 214.636L165.293 214.735L165.24 215.284C165.44 215.13 165.657 214.999 165.887 214.895C166.127 214.795 166.389 214.757 166.647 214.785C166.742 214.787 166.835 214.808 166.921 214.847C167.008 214.885 167.085 214.941 167.15 215.01C167.258 215.142 167.329 215.3 167.356 215.469C167.388 215.646 167.395 215.827 167.378 216.007L166.945 220.525L165.912 220.426L166.317 216.198C166.339 216.039 166.325 215.878 166.277 215.725C166.243 215.663 166.193 215.611 166.132 215.576C166.071 215.541 166.001 215.524 165.93 215.527C165.802 215.519 165.675 215.543 165.558 215.595C165.423 215.655 165.294 215.726 165.172 215.808L164.741 220.308L163.725 220.217Z" fill="white"/>
<path d="M169.452 220.844C169.203 220.828 168.964 220.742 168.762 220.596C168.596 220.47 168.476 220.294 168.42 220.093C168.357 219.859 168.339 219.616 168.367 219.375L168.714 215.751L168.11 215.693L168.175 215.011L168.779 215.068L168.936 213.431L169.969 213.53L169.812 215.167L170.712 215.253L170.647 215.936L169.747 215.85L169.403 219.438C169.373 219.601 169.396 219.77 169.467 219.919C169.515 219.976 169.575 220.022 169.642 220.053C169.71 220.083 169.784 220.099 169.858 220.097L170.04 220.114L170.233 220.133L170.159 220.9L169.799 220.908L169.452 220.844Z" fill="white"/>
<path d="M170.975 220.911L171.727 213.059L172.759 213.157L172.489 215.984C172.687 215.821 172.905 215.684 173.137 215.577C173.388 215.468 173.663 215.427 173.935 215.458C174.027 215.46 174.117 215.481 174.201 215.519C174.284 215.557 174.359 215.613 174.42 215.682C174.531 215.812 174.605 215.971 174.632 216.141C174.664 216.318 174.671 216.5 174.653 216.679L174.221 221.197L173.188 221.099L173.593 216.87C173.616 216.711 173.6 216.548 173.547 216.397C173.515 216.334 173.466 216.283 173.405 216.248C173.345 216.213 173.276 216.196 173.206 216.199C173.071 216.19 172.937 216.215 172.815 216.272C172.674 216.332 172.54 216.407 172.415 216.495L171.986 220.977L170.975 220.911Z" fill="white"/>
<path d="M123.843 197.666L124.538 200.781L127.71 201.084L124.964 202.705L125.66 205.813L123.265 203.707L120.519 205.321L121.793 202.401L119.404 200.289L122.575 200.593L123.843 197.666Z" fill="white"/>
<path d="M136.601 198.888L137.29 202.002L140.468 202.306L137.716 203.926L138.412 207.034L136.023 204.928L133.277 206.543L134.545 203.622L132.156 201.51L135.327 201.814L136.601 198.888Z" fill="white"/>
<path d="M149.351 200.109L150.046 203.223L153.218 203.527L150.472 205.147L151.162 208.255L148.773 206.149L146.027 207.764L147.295 204.843L144.906 202.731L148.083 203.035L149.351 200.109Z" fill="white"/>
<path d="M181.467 206.25C182.268 206.326 182.979 205.739 183.055 204.939C183.132 204.138 182.545 203.427 181.745 203.35C180.944 203.274 180.233 203.86 180.156 204.661C180.079 205.462 180.666 206.173 181.467 206.25Z" fill="white"/>
<path d="M179.428 227.542C180.229 227.618 180.94 227.032 181.016 226.231C181.093 225.43 180.506 224.719 179.706 224.642C178.905 224.566 178.194 225.153 178.117 225.953C178.04 226.754 178.627 227.465 179.428 227.542Z" fill="white"/>
<path d="M89.8967 197.482C90.6973 197.558 91.4085 196.972 91.4852 196.171C91.5618 195.37 90.9749 194.659 90.1743 194.582C89.3737 194.506 88.6625 195.093 88.5858 195.893C88.5091 196.694 89.096 197.405 89.8967 197.482Z" fill="white"/>
<path d="M87.8576 218.774C88.6583 218.851 89.3694 218.264 89.4461 217.463C89.5228 216.662 88.9359 215.951 88.1352 215.875C87.3346 215.798 86.6234 216.385 86.5467 217.185C86.4701 217.986 87.057 218.697 87.8576 218.774Z" fill="white"/>
<path d="M216.491 27.1953L89.8555 15.0701L74.2011 178.564L200.837 190.689L216.491 27.1953Z" fill="white" stroke="#263238" stroke-miterlimit="10"/>
<path d="M129.247 70.692C129.247 70.692 127.047 63.2396 127.276 58.5557C127.505 53.8717 128.506 46.8539 130.245 45.8195C131.984 44.7852 138.253 42.2096 140.065 40.4081C141.877 38.6066 144.502 34.0484 157.186 37.561C169.87 41.0735 172.3 51.1569 175.269 57.8965C178.239 64.6362 174.032 65.0928 173.403 65.9287C172.775 66.7646 171.183 68.5567 171.037 70.0789C170.953 71.0649 170.969 72.0567 171.083 73.0397C171.083 73.0397 169.726 76.8293 168.068 75.0491C166.41 73.2688 164.21 62.7505 164.21 62.7505C164.21 62.7505 149.652 62.0087 143.78 56.7406L137.932 51.4809C137.932 51.4809 132.733 62.3637 132.482 64.9792C132.232 67.5947 132.056 71.7229 130.62 71.6951C129.184 71.6674 129.247 70.692 129.247 70.692Z" fill="#6E6E6E" stroke="#263238" stroke-miterlimit="10"/>
<path d="M160.678 57.182C163.028 58.5679 165.645 59.4416 168.357 59.746" stroke="#263238" stroke-miterlimit="10"/>
<path d="M147.465 45.5725C147.465 45.5725 152.485 51.9721 159.042 56.1903" stroke="#263238" stroke-miterlimit="10"/>
<path d="M173.105 59.1766C173.954 60.3124 174.436 61.1327 174.408 61.4287" stroke="#263238" stroke-miterlimit="10"/>
<path d="M149.435 39.7021C149.701 39.7275 149.988 39.7185 150.297 39.7419C155.579 40.1562 167.404 52.0717 172.281 58.1163" stroke="#263238" stroke-miterlimit="10"/>
<path d="M145.893 43.2702C145.893 43.2702 144.238 40.4358 147.643 39.817" stroke="#263238" stroke-miterlimit="10"/>
<path d="M129.44 53.4657C129.011 53.964 128.721 54.5674 128.602 55.2141C128.273 58.6511 128.89 64.9339 129.212 65.0805" stroke="#263238" stroke-miterlimit="10"/>
<path d="M136.323 47.7973C134.112 49.1868 132.054 50.8038 130.18 52.622" stroke="#263238" stroke-miterlimit="10"/>
<path d="M139.931 45.5704C139.931 45.5704 139.093 46.0449 137.868 46.8054" stroke="#263238" stroke-miterlimit="10"/>
<path d="M134.838 52.8549C134.838 52.8549 131.353 55.5081 131.371 56.5888C131.411 57.3463 131.584 58.091 131.88 58.7893" stroke="#263238" stroke-miterlimit="10"/>
<path d="M196.456 128.721C193.943 124.604 163.368 101.993 163.368 101.993L146.088 98.8512L146.095 98.7848L145.693 98.7829L145.297 98.7084L145.291 98.7749L127.73 98.5808C127.73 98.5808 93.4136 114.978 90.1464 118.542C86.8792 122.106 74.0727 178.57 74.0727 178.57L200.835 190.707C200.835 190.707 198.957 132.837 196.456 128.721Z" fill="#407BFF" stroke="#263238" stroke-miterlimit="10"/>
<path d="M166.588 153.109L163.196 172.803L169.162 165.498L172.917 173.782L172.36 152.735L166.588 153.109Z" fill="#263238" stroke="#263238" stroke-miterlimit="10"/>
<path d="M178.093 146.64L178.814 143.636L176.227 141.944L175.043 139.094L171.95 139.243L169.312 137.631L166.908 139.571L163.824 139.818L163.02 142.801L160.664 144.812L161.771 147.698L161.05 150.707L163.637 152.4L164.821 155.25L167.914 155.101L170.552 156.713L172.956 154.773L176.04 154.526L176.85 151.544L179.2 149.531L178.093 146.64Z" fill="white" stroke="#263238" stroke-miterlimit="10"/>
<path d="M174.9 151.465C177.261 148.722 176.952 144.585 174.21 142.223C171.467 139.861 167.329 140.17 164.967 142.913C162.606 145.656 162.915 149.794 165.658 152.155C168.4 154.517 172.538 154.208 174.9 151.465Z" fill="white" stroke="#263238" stroke-miterlimit="10"/>
<path d="M91.8684 152.831C93.815 145.233 96.1888 137.566 98.7478 132.423" stroke="#263238" stroke-miterlimit="10"/>
<path d="M86.4145 178.209C86.4145 178.209 88.1893 167.821 90.9897 156.337" stroke="#263238" stroke-miterlimit="10"/>
<path d="M185.68 146.403C185.804 156.625 185.853 178.526 184.238 187.813" stroke="#263238" stroke-miterlimit="10"/>
<path d="M185.596 140.982C185.596 140.982 185.617 142.1 185.648 144.004" stroke="#263238" stroke-miterlimit="10"/>
<path d="M133.83 111.722L139.593 124.361L124.029 183.334L143.231 185.173L143.405 125.037L154.284 111.815L143.563 103.968L133.83 111.722Z" fill="#636363" stroke="#263238" stroke-miterlimit="10"/>
<path d="M133.828 111.722L137.788 120.403L151.336 115.398L154.282 111.815L146.011 105.763L137.239 109.007L133.828 111.722Z" fill="#263238" stroke="#263238" stroke-miterlimit="10"/>
<path d="M143.285 166.446L126.887 172.508L124.027 183.334L127.966 183.712L143.252 178.062L143.285 166.446Z" fill="#263238" stroke="#263238" stroke-miterlimit="10"/>
<path d="M143.304 158.152L143.344 146.531L132.702 150.462L129.307 163.322L143.304 158.152Z" fill="#263238" stroke="#263238" stroke-miterlimit="10"/>
<path d="M143.365 138.237L143.399 126.616L138.52 128.422L135.131 141.283L143.365 138.237Z" fill="#263238" stroke="#263238" stroke-miterlimit="10"/>
<path d="M128.439 93.5283C128.439 93.5283 125.026 96.7675 124.493 100.746C123.96 104.724 125.039 117.701 125.66 119.309C126.28 120.917 127.332 118.073 130.064 115.391C132.796 112.708 140.835 108.199 140.835 108.199L147.902 108.876C147.902 108.876 153.076 113.089 154.029 116.131C154.981 119.172 154.993 123.818 156.421 123.486C157.849 123.153 165.067 109.586 165.869 105.792C166.671 101.998 163.159 96.8466 163.159 96.8466C163.159 96.8466 150.88 102.029 144.165 100.922C137.45 99.8162 128.439 93.5283 128.439 93.5283Z" fill="#407BFF" stroke="#263238" stroke-miterlimit="10"/>
<path d="M129.904 69.359C129.904 69.359 128.426 64.4263 125.731 66.6553C123.037 68.8844 124.392 73.2628 125.156 76.3534C125.663 78.2982 126.441 80.162 127.467 81.8901L129.904 69.359Z" fill="white" stroke="#263238" stroke-miterlimit="10"/>
<path d="M168.685 72.9138C168.685 72.9138 170.319 68.5838 172.703 72.0793C175.087 75.5749 171.494 81.2656 170.237 83.0044L168.601 85.2556L168.685 72.9138Z" fill="white" stroke="#263238" stroke-miterlimit="10"/>
<path d="M144.967 47.2047C144.967 47.2047 145.915 59.5235 167.532 61.4165C167.532 61.4165 168.718 75.0016 169.174 79.4767C169.629 83.9519 169.589 89.9767 166.219 95.5059C162.849 101.035 157.987 103.934 153.05 107.18C148.112 110.426 142.455 110.433 138.673 107.401C134.892 104.369 127.416 95.3505 126.395 89.2118C125.373 83.0732 128.464 75.0485 129.235 70.6907C130.006 66.333 132.575 48.8527 144.967 47.2047Z" fill="white" stroke="#263238" stroke-miterlimit="10"/>
<path d="M141.548 70.6444C142.088 70.6962 142.598 69.9863 142.687 69.0589C142.776 68.1315 142.41 67.3378 141.869 67.286C141.329 67.2343 140.819 67.9441 140.73 68.8715C140.641 69.7989 141.007 70.5927 141.548 70.6444Z" fill="#263238"/>
<path d="M158.083 70.5331C157.994 71.4633 157.481 72.1701 156.944 72.1186C156.406 72.0672 156.043 71.2765 156.132 70.3463C156.221 69.4161 156.728 68.7088 157.265 68.7602C157.803 68.8117 158.17 69.6271 158.083 70.5331Z" fill="#263238"/>
<path d="M141.975 90.1672C141.975 90.1672 143.459 92.9366 149.417 91.3187" stroke="#263238" stroke-miterlimit="10"/>
<path d="M133.383 96.4581C133.383 96.4581 139.292 103.37 141.63 104.032C143.969 104.695 148.974 105.065 150.58 104.341C152.185 103.617 156.429 99.2134 156.429 99.2134" stroke="#263238" stroke-miterlimit="10"/>
<path d="M135.197 63.8006C135.197 63.8006 137.517 61.2858 140.883 61.7178C144.249 62.1498 146.12 62.9872 145.642 63.3926C145.164 63.7979 143.945 63.992 140.652 64.1339C137.359 64.2758 135.005 64.66 135.197 63.8006Z" fill="#6E6E6E" stroke="#263238" stroke-miterlimit="10"/>
<path d="M164.319 66.5889C164.319 66.5889 162.513 63.679 159.132 63.465C155.751 63.251 153.744 63.7171 154.136 64.2057C154.528 64.6944 155.688 65.1164 158.901 65.8811C162.113 66.6459 164.338 67.4685 164.319 66.5889Z" fill="#6E6E6E" stroke="#263238" stroke-miterlimit="10"/>
<path d="M134.588 83.8761C134.859 85.2421 135.206 86.592 135.627 87.9195" stroke="#263238" stroke-miterlimit="10"/>
<path d="M159.176 86.5597C159.176 86.5597 157.368 90.5439 156.389 91.6572" stroke="#263238" stroke-miterlimit="10"/>
<path d="M144.006 81.4986C144.006 81.4986 140.383 82.7915 138.541 82.6151C136.698 82.4387 134.742 79.9533 134.281 82.5364C133.821 85.1195 139.993 88.0087 143.745 88.8068C147.496 89.6049 153.092 89.4823 154.997 89.0063C157.035 88.4798 158.798 87.2031 159.935 85.4316C160.863 83.7649 160.785 83.4344 159.574 83.5318C158.364 83.6293 157.653 84.1159 156.365 83.8829C154.671 83.4895 153 83.0019 151.36 82.4222L144.006 81.4986Z" fill="#6E6E6E" stroke="#263238" stroke-miterlimit="10"/>
<path d="M144.329 75.8362C144.329 75.8362 142.206 78.5893 142.449 79.4904C142.692 80.3914 144.927 83.3363 147.66 83.3786C150.393 83.4208 153.644 81.4339 153.866 80.2544C154.089 79.0749 151.942 76.3457 151.942 76.3457" fill="white"/>
<path d="M144.329 75.8362C144.329 75.8362 142.206 78.5893 142.449 79.4904C142.692 80.3914 144.927 83.3363 147.66 83.3786C150.393 83.4208 153.644 81.4339 153.866 80.2544C154.089 79.0749 151.942 76.3457 151.942 76.3457" stroke="#263238" stroke-miterlimit="10"/>
<path d="M136.439 64.468L146.327 65.4148C146.807 65.4608 147.25 65.6958 147.557 66.0682C147.865 66.4406 148.011 66.9198 147.965 67.4004L147.774 69.3937C147.621 70.9957 146.838 72.4711 145.596 73.4954C144.355 74.5198 142.758 75.009 141.156 74.8556L139.676 74.7139C138.074 74.5606 136.598 73.7771 135.574 72.5358C134.55 71.2946 134.061 69.6973 134.214 68.0953L134.402 66.1322C134.421 65.8871 134.49 65.6486 134.604 65.4308C134.718 65.213 134.875 65.0206 135.065 64.8651C135.255 64.7096 135.475 64.5942 135.711 64.526C135.947 64.4577 136.195 64.438 136.439 64.468Z" stroke="#263238" stroke-miterlimit="10"/>
<path d="M152.923 66.0464L162.805 66.9926C163.286 67.0386 163.728 67.2736 164.036 67.646C164.343 68.0184 164.49 68.4976 164.444 68.9782L164.253 70.9715C164.1 72.5735 163.316 74.0489 162.075 75.0732C160.834 76.0976 159.236 76.5868 157.634 76.4335L156.154 76.2918C154.552 76.1384 153.077 75.3549 152.053 74.1136C151.028 72.8724 150.539 71.2751 150.692 69.6731L150.88 67.71C150.9 67.4644 150.969 67.2254 151.083 67.0072C151.197 66.7891 151.355 66.5964 151.546 66.4409C151.737 66.2853 151.957 66.1702 152.194 66.1024C152.431 66.0346 152.679 66.0155 152.923 66.0464Z" stroke="#263238" stroke-miterlimit="10"/>
<path d="M147.811 68.0743C147.811 68.0743 149.82 66.5111 150.74 68.3548" stroke="#263238" stroke-miterlimit="10"/>
<path d="M164.428 70.5372L168.873 70.9628" stroke="#263238" stroke-miterlimit="10"/>
<path d="M129.943 67.2353L134.389 67.661" stroke="#263238" stroke-miterlimit="10"/>
<path d="M145.123 70.9868C145.123 70.9868 144.905 73.264 141.561 73.9314" stroke="#263238" stroke-miterlimit="10"/>
<path d="M152.638 71.3772C152.638 71.3772 152.192 73.7423 155.266 74.8047" stroke="#263238" stroke-miterlimit="10"/>
<path d="M207.929 38.1707L182.608 62.3601" stroke="#263238" stroke-miterlimit="10"/>
<path d="M214.203 32.1761L210.869 35.3558" stroke="#263238" stroke-miterlimit="10"/>
<path d="M184.318 87.6137L179.326 92.3902" stroke="#263238" stroke-miterlimit="10"/>
<path d="M193.367 78.971L186.208 85.8137" stroke="#263238" stroke-miterlimit="10"/>
<path d="M108.555 163.932L94.5119 177.345" stroke="#263238" stroke-miterlimit="10"/>
</svg>
