<svg width="21" height="21" viewBox="0 0 21 21" fill="none" xmlns="http://www.w3.org/2000/svg">
<g id="zondicons:add-outline" clip-path="url(#clip0_641_1107)">
<path id="Vector" d="M11.55 9.45H15.75V11.55H11.55V15.75H9.45V11.55H5.25V9.45H9.45V5.25H11.55V9.45ZM10.5 21C7.71523 21 5.04451 19.8938 3.07538 17.9246C1.10625 15.9555 0 13.2848 0 10.5C0 7.71523 1.10625 5.04451 3.07538 3.07538C5.04451 1.10625 7.71523 0 10.5 0C13.2848 0 15.9555 1.10625 17.9246 3.07538C19.8938 5.04451 21 7.71523 21 10.5C21 13.2848 19.8938 15.9555 17.9246 17.9246C15.9555 19.8938 13.2848 21 10.5 21ZM10.5 18.9C12.7278 18.9 14.8644 18.015 16.4397 16.4397C18.015 14.8644 18.9 12.7278 18.9 10.5C18.9 8.27218 18.015 6.13561 16.4397 4.5603C14.8644 2.985 12.7278 2.1 10.5 2.1C8.27218 2.1 6.13561 2.985 4.5603 4.5603C2.985 6.13561 2.1 8.27218 2.1 10.5C2.1 12.7278 2.985 14.8644 4.5603 16.4397C6.13561 18.015 8.27218 18.9 10.5 18.9Z" fill="#FF4646"/>
</g>
<defs>
<clipPath id="clip0_641_1107">
<rect width="21" height="21" fill="white"/>
</clipPath>
</defs>
</svg>
