<svg width="25" height="25" viewBox="0 0 25 25" fill="none" xmlns="http://www.w3.org/2000/svg">
<g id="icone">
<rect id="Rectangle 41965" width="25" height="25" rx="4" fill="#2563EB" fill-opacity="0.25"/>
<g id="Group">
<path id="Vector" fill-rule="evenodd" clip-rule="evenodd" d="M8.39347 10.8485C8.90783 10.8485 9.40112 10.6442 9.76482 10.2804C10.1285 9.91674 10.3329 9.42345 10.3329 8.90909C10.3329 8.39473 10.1285 7.90144 9.76482 7.53773C9.40112 7.17403 8.90783 6.9697 8.39347 6.9697C7.87911 6.9697 7.38581 7.17403 7.02211 7.53773C6.6584 7.90144 6.45407 8.39473 6.45407 8.90909C6.45407 9.42345 6.6584 9.91674 7.02211 10.2804C7.38581 10.6442 7.87911 10.8485 8.39347 10.8485ZM8.39347 11.8182C8.77549 11.8182 9.15378 11.7429 9.50673 11.5967C9.85967 11.4505 10.1804 11.2363 10.4505 10.9661C10.7206 10.696 10.9349 10.3753 11.0811 10.0224C11.2273 9.6694 11.3026 9.29112 11.3026 8.90909C11.3026 8.52706 11.2273 8.14878 11.0811 7.79583C10.9349 7.44288 10.7206 7.12219 10.4505 6.85205C10.1804 6.58192 9.85967 6.36764 9.50673 6.22144C9.15378 6.07525 8.77549 6 8.39347 6C7.62193 6 6.88199 6.30649 6.33643 6.85205C5.79087 7.39761 5.48438 8.13755 5.48438 8.90909C5.48438 9.68063 5.79087 10.4206 6.33643 10.9661C6.88199 11.5117 7.62193 11.8182 8.39347 11.8182Z" fill="#2563EB"/>
<path id="Vector_2" fill-rule="evenodd" clip-rule="evenodd" d="M7.28267 10.7476C7.32782 10.7927 7.36364 10.8462 7.38808 10.9051C7.41253 10.964 7.42511 11.0271 7.42511 11.0909C7.42511 11.1547 7.41253 11.2178 7.38808 11.2767C7.36364 11.3356 7.32782 11.3891 7.28267 11.4342L6.95491 11.761C6.32416 12.3919 5.96978 13.2475 5.9697 14.1396V15.9394C5.9697 16.068 5.91861 16.1913 5.82769 16.2822C5.73676 16.3731 5.61344 16.4242 5.48485 16.4242C5.35626 16.4242 5.23294 16.3731 5.14201 16.2822C5.05108 16.1913 5 16.068 5 15.9394V14.1396C5.00014 12.9903 5.45671 11.8881 6.26933 11.0754L6.59612 10.7476C6.64116 10.7025 6.69466 10.6666 6.75357 10.6422C6.81247 10.6178 6.87562 10.6052 6.93939 10.6052C7.00317 10.6052 7.06632 10.6178 7.12522 10.6422C7.18412 10.6666 7.23763 10.7025 7.28267 10.7476ZM18.7173 10.4567C18.6722 10.5018 18.6364 10.5553 18.6119 10.6142C18.5875 10.6731 18.5749 10.7362 18.5749 10.8C18.5749 10.8638 18.5875 10.9269 18.6119 10.9858C18.6364 11.0447 18.6722 11.0982 18.7173 11.1433L19.0451 11.47C19.6758 12.101 20.0302 12.9566 20.0303 13.8487V15.9394C20.0303 16.068 20.0814 16.1913 20.1723 16.2822C20.2632 16.3731 20.3866 16.4242 20.5152 16.4242C20.6437 16.4242 20.7671 16.3731 20.858 16.2822C20.9489 16.1913 21 16.068 21 15.9394V13.8487C20.9999 12.6994 20.5433 11.5972 19.7307 10.7845L19.4039 10.4567C19.3588 10.4116 19.3053 10.3757 19.2464 10.3513C19.1875 10.3269 19.1244 10.3143 19.0606 10.3143C18.9968 10.3143 18.9337 10.3269 18.8748 10.3513C18.8159 10.3757 18.7624 10.4116 18.7173 10.4567Z" fill="#2563EB"/>
<path id="Vector_3" fill-rule="evenodd" clip-rule="evenodd" d="M17.1209 10.8485C16.6065 10.8485 16.1132 10.6442 15.7495 10.2804C15.3858 9.91674 15.1815 9.42345 15.1815 8.90909C15.1815 8.39473 15.3858 7.90144 15.7495 7.53773C16.1132 7.17403 16.6065 6.9697 17.1209 6.9697C17.6352 6.9697 18.1285 7.17403 18.4922 7.53773C18.8559 7.90144 19.0602 8.39473 19.0602 8.90909C19.0602 9.42345 18.8559 9.91674 18.4922 10.2804C18.1285 10.6442 17.6352 10.8485 17.1209 10.8485ZM17.1209 11.8182C16.7388 11.8182 16.3605 11.7429 16.0076 11.5967C15.6546 11.4505 15.334 11.2363 15.0638 10.9661C14.7937 10.696 14.5794 10.3753 14.4332 10.0224C14.287 9.6694 14.2118 9.29112 14.2118 8.90909C14.2118 8.52706 14.287 8.14878 14.4332 7.79583C14.5794 7.44288 14.7937 7.12219 15.0638 6.85205C15.334 6.58192 15.6546 6.36764 16.0076 6.22144C16.3605 6.07525 16.7388 6 17.1209 6C17.8924 6 18.6323 6.30649 19.1779 6.85205C19.7235 7.39761 20.0299 8.13755 20.0299 8.90909C20.0299 9.68063 19.7235 10.4206 19.1779 10.9661C18.6323 11.5117 17.8924 11.8182 17.1209 11.8182ZM12.7572 14.9697C12.1143 14.9697 11.4977 15.2251 11.043 15.6797C10.5884 16.1344 10.333 16.751 10.333 17.3939V18.6545C10.333 18.7831 10.2819 18.9065 10.191 18.9974C10.1 19.0883 9.97672 19.1394 9.84813 19.1394C9.71954 19.1394 9.59622 19.0883 9.50529 18.9974C9.41436 18.9065 9.36328 18.7831 9.36328 18.6545V17.3939C9.36328 16.4938 9.72086 15.6305 10.3573 14.9941C10.9938 14.3576 11.8571 14 12.7572 14C13.6573 14 14.5206 14.3576 15.1571 14.9941C15.7936 15.6305 16.1512 16.4938 16.1512 17.3939V18.6545C16.1512 18.7831 16.1001 18.9065 16.0092 18.9974C15.9182 19.0883 15.7949 19.1394 15.6663 19.1394C15.5377 19.1394 15.4144 19.0883 15.3235 18.9974C15.2325 18.9065 15.1815 18.7831 15.1815 18.6545V17.3939C15.1815 17.0756 15.1188 16.7603 14.9969 16.4662C14.8751 16.1721 14.6965 15.9049 14.4714 15.6797C14.2463 15.4546 13.9791 15.2761 13.6849 15.1542C13.3908 15.0324 13.0756 14.9697 12.7572 14.9697Z" fill="#2563EB"/>
<path id="Vector_4" fill-rule="evenodd" clip-rule="evenodd" d="M12.7567 13.5152C13.2711 13.5152 13.7644 13.3108 14.1281 12.9471C14.4918 12.5834 14.6961 12.0901 14.6961 11.5758C14.6961 11.0614 14.4918 10.5681 14.1281 10.2044C13.7644 9.8407 13.2711 9.63637 12.7567 9.63637C12.2424 9.63637 11.7491 9.8407 11.3854 10.2044C11.0217 10.5681 10.8174 11.0614 10.8174 11.5758C10.8174 12.0901 11.0217 12.5834 11.3854 12.9471C11.7491 13.3108 12.2424 13.5152 12.7567 13.5152ZM12.7567 14.4849C13.5283 14.4849 14.2682 14.1784 14.8138 13.6328C15.3593 13.0872 15.6658 12.3473 15.6658 11.5758C15.6658 10.8042 15.3593 10.0643 14.8138 9.51872C14.2682 8.97316 13.5283 8.66667 12.7567 8.66667C11.9852 8.66667 11.2453 8.97316 10.6997 9.51872C10.1541 10.0643 9.84766 10.8042 9.84766 11.5758C9.84766 12.3473 10.1541 13.0872 10.6997 13.6328C11.2453 14.1784 11.9852 14.4849 12.7567 14.4849Z" fill="#2563EB"/>
</g>
</g>
</svg>
